<svg width="331" height="181" fill="none" xmlns="http://www.w3.org/2000/svg"><path d="M.479 159.442s45.846-1.319 51.033-3.211c0 0 17.59.946 20.521 3.786 0 0 41.117 8.283 51.679 4.024 0 0 8.292 0 9.657-2.367 0 0 15.471 3.803 17.725-.93 0 0 7.506 4.426 16.322 1.822 0 0 9.155-3.495 11.575-1.129 0 0 67.734 7.125 80.591-2.578 0 0 64.581-3.541 70.897.583" stroke="#167BF7" stroke-miterlimit="10"/><path d="M152.653 170.109c-.318-.089-.833.289-.941.695-.109.405.258 1.026.687 1.122.354.079.835-.278.94-.699.109-.444-.228-.997-.686-1.118zM229.156 170.536c-.134.766.517 1.434 1.153 1.331a.61.61 0 00.362-.277c.219-.378.057-.726-.157-1.048-.193-.293-.499-.448-.829-.363-.226.06-.41.272-.529.357zM181.494 173.827c-.27.135-.546.2-.707.371-.41.435-.448 1.125-.064 1.427a.791.791 0 00.714.064 1.042 1.042 0 00.492-1.361c-.074-.177-.26-.305-.435-.501zM185.135 173.66a.849.849 0 00.278.949.847.847 0 00.313.153.785.785 0 00.907-.433c.197-.51-.079-1.156-.551-1.299-.363-.108-.802.183-.947.63zM90.749 166.814c-.114.59-.041 1.011.362 1.252.222.116.48.15.724.094.279-.069.362-.345.305-.634a6.235 6.235 0 00-.132-.615c-.1-.322-.302-.627-.653-.543-.256.061-.463.335-.606.446zM74.472 170.645c.07.098.14.303.269.346a.753.753 0 00.512-.076.369.369 0 00.212-.457c-.07-.211-.265-.231-.455-.207-.214.029-.424.079-.538.394zM157.019 170.645c.068.098.141.303.268.346a.75.75 0 00.511-.076.366.366 0 00.196-.187.376.376 0 00.017-.27c-.07-.211-.266-.231-.455-.207-.214.029-.423.079-.537.394zM303.707 170.645c.07.098.141.303.268.346a.756.756 0 00.513-.076.373.373 0 00.212-.457c-.071-.211-.265-.231-.455-.207-.213.029-.423.079-.538.394zM243.751 170.645c.07.098.141.303.268.346a.756.756 0 00.513-.076.373.373 0 00.212-.457c-.07-.211-.265-.231-.455-.207-.211.029-.417.079-.538.394zM272.526 168.125c.07.097.142.301.268.346a.767.767 0 00.513-.077.37.37 0 00.212-.458c-.07-.209-.265-.231-.454-.206-.214.029-.424.08-.539.395zM276.425 164.453c.07.097.141.303.269.346a.765.765 0 00.512-.076.371.371 0 00.212-.458c-.07-.21-.265-.232-.455-.206-.213.029-.424.078-.538.394zM71.079 168.211c-.322-.108-.765.148-.879.51-.113.362.085.8.423.916a.815.815 0 00.945-.387c.169-.336-.103-.911-.49-1.039zM47.01 165.697c.146-.688-.142-1.21-.588-1.258-.296-.037-.611.222-.675.553-.111.579.169 1.135.604 1.089.264-.032.5-.285.659-.384zM310.161 169.369c.146-.689-.141-1.211-.588-1.259-.296-.036-.611.223-.674.553-.111.58.169 1.135.604 1.089.264-.031.5-.285.658-.383zM236.145 172.338a.918.918 0 00-1.149.568c-.095.275.109.639.423.754.457.166.886 0 1.061-.397.171-.383.017-.809-.335-.925zM268.497 163.765a.923.923 0 00-1.15.569c-.096.274.108.639.423.752.457.166.886 0 1.061-.397.164-.382.011-.807-.334-.924zM203.478 177.693c-.294.185-.594.272-.77.507-.445.592-.487 1.531-.069 1.944a.716.716 0 00.777.087c.263-.163.466-.447.565-.792a1.76 1.76 0 00-.03-1.063c-.08-.241-.282-.416-.473-.683z" fill="#167BF7"/><path d="M60.221 57.56l-12.13-13.43a.456.456 0 01-.123-.3c-.015-1.76 1.66-3.253 2.688-3.903a.475.475 0 01.429-.035L67.34 46.31m18.04 6.719c20.445 7.178 64.877 24.608 79.047 36.909 23.975 17.177 72.052 51.659 72.565 52.172.642.641 8.77 7.747 12.725 12.878m2.528 3.158c.54.622 1.667 2.082 2.214 2.978" stroke="#167BF7" stroke-linecap="round" stroke-linejoin="round"/><path d="M73.273 71.792c2.473 3.718 6.506 9.328 11.177 15.059m97.886 74.789c-6.086-3.746-54.285-38.347-77.824-55.318-6.352-3.847-13.784-11.77-20.062-19.471m13.615-29.038c-2.437 2.436-7.31 7.635-7.31 8.934 0 1.3 90.02 65.248 135.031 97.06M84.45 86.851c32.331 22.431 100.936 70.558 107.29 75.41M82.763 44.276l7.287 5.388a.5.5 0 01.198.471l-.631 4.496M72.512 34.06l9.2 6.003a.5.5 0 01.217.314l.517 2.418m-9.934-8.735l-3.814-2.489a.5.5 0 00-.76.303l-2.483 10.398a.494.494 0 00.035.33c1.03 2.13 3.261 6.406 4.645 7.92.046.05.102.088.165.114l14.314 6.056a.5.5 0 00.684-.565l-2.852-13.332m-9.934-8.735l-.373 1.487a.5.5 0 00.208.538l2.969 1.972m7.13 4.738l-6.054-4.022m-1.076-.716l-3.749 10.617a.5.5 0 00.202.587l.212.136a.5.5 0 00.741-.254l3.67-10.37m-1.076-.716l1.076.716" stroke="#167BF7" stroke-linecap="round" stroke-linejoin="round"/><path d="M55.385 56.6c-.543.834-5.11 3.942-7.73 5.55.487 0 4.264 3.102 6.091 4.652l2.297-1.547c1.34-.81.73-.132 1.39 0 .529.106 5.417-3.436 7.796-5.22l-2.379-2.18c-1.158.214-5.197-.66-7.465-1.255z" stroke="#167BF7" stroke-linejoin="round"/><path d="M57.883 65.387c-.59.69-1.985 2.144-2.84 2.439 1.57 1.247 4.758 3.943 4.945 4.744 4.366-.089 13.406-.574 14.635-1.804-1.782-2.918-6.215-9.175-9.69-10.86m-.969 12.664c2.083 1.07 6.342 3.603 6.716 5.18 1.181-.568 3.763-1.932 4.645-2.84" stroke="#167BF7" stroke-linejoin="round"/><path d="M50.869 39.718c.322-1.603 1.002-5.055.615-5.784-.408-.009-1.52.737-1.888 2.244m-.818 5.138c.778-2.22 1.92-7.748-1.472-9.114-.265-.067-.824-.124-.71 1.265-.022 1.436.007 4.683.295 5.191M49 39.883c-1.178-.729-3.93-2.115-5.517-1.83-1.587.284-2.543 1.17-2.823 1.576 1.76.322 5.412.95 5.935.89.654-.076 1.795.56 1.922.89m-3.077-.89l-2.899 2.44c-.11.255-.183.769.407.789.59.02 2.521-.965 3.445-1.456m.202-1.493c-.218 1.28-.523 3.946 0 4.373.302-.017.957-.204 1.364-1.424m-1.502-6.484c-.67-.237-2.146-.457-2.695.56" stroke="#167BF7" stroke-width=".8" stroke-linecap="round" stroke-linejoin="round"/><path d="M149.719 80.72l-3.907 5.74 1.275 2.073-1.275 1.754c1.913 1.488 5.979 4.433 6.936 4.305l.871-1.276.737.737c-.189.454-.454 1.497 0 2.041 1.606 1.115 4.842 3.459 4.933 3.913.09.453.567-.908.794-1.645.491.057 1.247.465.34 1.645l7.484 6.18 1.134-.68 1.304.68-.453 1.361 4.479 3.232.907-1.078h.284l-.284 1.078 10.433 7.257.976-1.31c.329-.039 1.028-.043 1.197.258l4.647-6.782m4.565 3.15l-4.565 6.202.471 1.205-.843 1.264c1.826 1.887 5.78 5.829 6.985 6.504l.843-.843 1.565.843v1.445l5.058 3.372.904-.903c.22.02.674.144.722.481.048.338-.461 1.064-.722 1.385l8.309 5.901.904-.782h.662c0 .542.169 1.734.843 2.167.674.434 2.85 2.028 3.854 2.77l.722-1.084.964.542v1.506c3.051 1.846 9.309 5.877 9.935 7.226l5.601-8.19M241 145.93c-.712 1.613-2.307 5.057-2.984 5.928l7.057 5.726.766-1.334m1.895-3.303l-1.484 1.941m-.989.429c2.016-.578 6.755-.919 10.336 2.63-2.366.39-7.594.467-10.336-2.63z" stroke="#167BF7" stroke-linecap="round" stroke-linejoin="round"/><path d="M179.461 100.426l5.597-3.741m20.143 22.282c.981-.814 2.113-2.695 3.177-4.839m3.275-5.834l6.331 4.922m-6.331 10.441l3.278-4.69m-2.272-9.511c-2.045 2.989-6.335 9.075-7.139 9.511m9.904-4.283l-5.229 7.994m.403-12.518l5.429 4.524 1.957-1.468m0 0l.627.487-2.331 3.335m-6.985-4.855a81.683 81.683 0 002.358-5.848l-17.522-13.583a8.291 8.291 0 00-.293-.223m15.457 19.654c1.76 1.464 5.621 4.486 6.985 4.855m-6.985-4.855a60.184 60.184 0 01-.917 1.945m7.902 2.91l-1.349 1.929m-6.553-4.839c1.434 1.364 4.752 4.243 6.553 4.839m-36.308-19.113c1.04-1.32 2.296-2.927 3.639-4.661m2.796 1.492l6.9-4.612c.146-.21.719-.38 1.88.456m-8.78 4.156c1.489-.717 5.378-5.978 8.631-10.703m3.039-4.523c.138-.21.27-.414.396-.609l-2.993-2.111c-.097.486-1.192 2.153-2.802 4.406m5.399-1.686c-.398.608-.841 1.278-1.316 1.986m1.316-1.986c.342.376.633 1.423 0 3.176m-2.89 7.894c.548-1.034 1.112-3.76 1.326-4.992.778-1.122 1.27-2.088 1.564-2.902m-5.399-1.49l2.509 2.029m-2.509-2.029a306.36 306.36 0 01-4.84 6.534m8.923-6.234l1.316 1.19m-1.316-1.19a221.87 221.87 0 01-1.723 2.538m0 0l1.475 1.101m-8.675 2.595c-3.828-3.244-12.098-9.975-14.552-10.94-.573.882-1.31 2.003-2.104 3.189m16.656 7.751c-.473.625-.952 1.254-1.431 1.88m-20.914-1.88c.527-.33 2.265-2.728 4.071-5.361m16.843 7.242l-1.96-1.057c-1.927 2.222-5.842 6.992-6.083 8.295m8.043-7.238a699.324 699.324 0 01-2.796 3.633m-12.429-13.265l14.119 10.6m-14.119-10.6c-.525.784-1.074 1.598-1.618 2.39m0 0l14.047 10.875m63.578 55.194l4.026-8.565c.069-.221.024-.762-.707-1.151l1.115-1.432m-7.632 4.355c.293-.463 2.924-2.974 4.203-4.172.243.146.873-.061 1.157-.183l2.497-3.837a2.054 2.054 0 011.767 1.279l-1.992 2.558m-12.779 2.985c.559-.623 2.321-1.774 4.145-.245 1.582 1.327.982 3.321.119 4.326m7.059-8.136l1.456 1.07M125.33 68.388c-.119-.846.004-2.314 1.043-3.052m3.022 5.05c.787-.394 1.193-1.95.93-3.306m0 0c-.229-1.181-.966-2.213-2.401-2.196-.663.007-1.169.18-1.551.452m3.952 1.744c.951 1.09 2.869 3.67 2.925 5.268m-6.877-7.012c-1.072-.128-3.748-.102-5.879 1.02" stroke="#167BF7" stroke-width=".8" stroke-linecap="round" stroke-linejoin="round"/><path d="M201.078 106.503l-3.232-2.308c.889-.937 1.744-1.463 2.996-.614 1.002.679.575 2.231.236 2.922zM194.983 108.336l-3.375-2.377c.594-.68 2.166-1.635 3.206-.68.832.764.46 2.357.169 3.057zM239.697 143.268c-.372-.643.247-1.02.698-.924 1.395.784 1.148 1.782.515 1.868-.243-.028-.816-.257-1.213-.944zM193.57 115.99c-.181-.765-.94-2.162-2.523-1.635.028.545.573 1.635 2.523 1.635zM188.867 118.514l-.745.774 1.405 1.09.831-1.09-1.491-.774zM127.347 67.697c-.416-.924.174-1.278.521-1.34 1.519.327 1.402 1.377 1.155 1.86-.385.211-1.259.402-1.676-.52z" stroke="#167BF7" stroke-width=".7" stroke-linecap="round" stroke-linejoin="round"/><path d="M78.35 61.107c2.113-2.216 4.645-1.201 5.868-.24 1.058.83 2.391 3.71.24 6.028-2.26 2.437-5.18 1.157-6.108.224-1.27-1.277-1.956-3.96 0-6.012zM127.757 34.03c1.918-2.011 4.217-1.09 5.327-.218.961.754 2.172 3.369.219 5.473-2.053 2.213-4.704 1.05-5.546.204-1.153-1.16-1.776-3.596 0-5.459zM126.186 52.4c1.455-1.527 3.199-.828 4.041-.167.729.572 1.647 2.556.166 4.153-1.557 1.678-3.568.796-4.207.154-.874-.88-1.347-2.728 0-4.14zM217.162 93.708c1.454-1.526 3.199-.827 4.041-.166.728.572 1.647 2.555.165 4.152-1.557 1.678-3.568.797-4.206.154-.875-.88-1.347-2.727 0-4.14zM224.794 104.426c1.13-1.185 2.484-.642 3.138-.129.566.444 1.279 1.985.129 3.225-1.21 1.303-2.771.618-3.267.119-.679-.683-1.046-2.118 0-3.215zM150.088 61.904c1.954-2.05 4.297-1.112 5.429-.223.978.768 2.213 3.433.222 5.578-2.092 2.254-4.793 1.07-5.651.207-1.175-1.182-1.81-3.664 0-5.562zM178.479 68.232c1.99-2.145.93-5.21-.049-5.978-1.132-.889-3.475-1.828-5.429.223-1.81 1.898-1.175 4.38 0 5.562.429.432 1.321.945 2.368 1.066M135.166 59.82c.903-.946 1.985-.512 2.507-.102.452.355 1.022 1.585.103 2.576-.966 1.04-2.214.494-2.61.095-.542-.545-.836-1.692 0-2.568zM157.991 76.261c.903-.947 1.985-.513 2.507-.103.452.355 1.022 1.586.103 2.576-.966 1.041-2.214.494-2.61.096-.542-.546-.835-1.692 0-2.569z" stroke="#167BF7" stroke-linecap="round" stroke-linejoin="round"/><path d="M175.736 68.75c.903-.947 1.985-.513 2.507-.103.452.355 1.022 1.585.103 2.576-.966 1.04-2.213.494-2.609.096-.543-.546-.836-1.692-.001-2.569zM227.304 118.417c-.229.118-.58.45-.148.829.542.473.246-1.002.148-.829zM237.177 120.909c-.241-.093-.722-.136-.717.439.005.719.911-.482.717-.439zM245.035 122.913c-.148-.212-.525-.514-.841-.033-.394.601 1.026.105.841.033zM226.735 122.531c-.258-.008-.726.111-.531.652.243.677.701-.756.531-.652zM236.507 125.156c.08-.245.095-.728-.479-.692-.717.046.532.884.479.692zM244.104 125.941c-.258.003-.721.141-.503.674.271.666.668-.785.503-.674zM225.341 126.711c-.229-.659.062-.486.376-.476.134.173.068.489-.074.614-.159.14-.288-.097-.302-.138zM235.461 130.026c-.229-.659.063-.486.376-.476.134.173.068.489-.073.614-.16.14-.289-.097-.303-.138zM243.219 130.602c-.467-.518-.131-.472.161-.585.191.107.253.425.172.594-.093.192-.304.024-.333-.009zM51.339 21.902l.528-2.36m6.431 3.448l.84-2.641m5.872 3.76l.777-2.704m6.152 4.04l.963-2.704m6.09 4.133l1.15-2.765m5.25 5.623l1.243-3.293m5.5 5.934l1.584-2.982m4.475 8.171l1.46-3.604M96.918 65.363l.737-1.645m4.423 3.572l1.02-1.927m3.629 3.685l.907-1.758m3.856 4.026l1.361-1.928m3.799 4.083l1.077-1.815m3.118 4.933l1.531-1.984m3.119 4.933l1.304-1.701m2.268 6.237l1.701-2.155" stroke="#167BF7" stroke-linecap="round" stroke-linejoin="round"/><path fill-rule="evenodd" clip-rule="evenodd" d="M81.992 64.547c-.112.025-.216-.014-.318-.046-.231-.071-.46-.152-.692-.215a.9.9 0 00-.321-.03c-.222.025-.335.174-.407.36-.073.19-.023.358.137.513a1.7 1.7 0 00.466.32c.194.091.37.085.518-.044a.969.969 0 00.155-.174c.14-.201.274-.406.41-.609l.052-.074zm.587.378c-.202.293-.4.59-.609.877-.139.193-.322.333-.59.345a1.16 1.16 0 01-.481-.077 2.692 2.692 0 01-1.188-.868.996.996 0 01-.19-.426.677.677 0 01.097-.489c.087-.142.182-.28.284-.412a.839.839 0 01.911-.273c.374.117.75.23 1.122.352.416.135.634-.137.684-.42.025-.14-.051-.27-.153-.383a1.426 1.426 0 00-.496-.35c-.217-.095-.413-.06-.556.095-.048.052-.088.057-.151.01-.13-.094-.263-.182-.394-.273-.075-.053-.077-.069-.032-.137.126-.195.287-.347.538-.387.224-.035.444.005.66.106.364.17.697.388.973.681.26.275.38.58.285.922a.82.82 0 01-.112.233c-.197.294-.4.583-.602.874z" fill="#167BF7"/><circle cx="232.096" cy="1.083" r=".776" fill="#167BF7"/></svg>